<?xml version="1.0" encoding="utf-8"?>
<!-- Generated by IcoMoon.io -->
<!DOCTYPE svg PUBLIC "-//W3C//DTD SVG 1.1//EN" "http://www.w3.org/Graphics/SVG/1.1/DTD/svg11.dtd">
<svg version="1.1" xmlns="http://www.w3.org/2000/svg" xmlns:xlink="http://www.w3.org/1999/xlink" width="24" height="24" viewBox="0 0 24 24">
<path d="M14.016 8.984q0.609 0 1.055 0.445t0.445 1.055-0.445 1.055-1.055 0.445-1.055-0.445-0.445-1.055 0.445-1.055 1.055-0.445zM14.016 13.016q0.609 0 1.055 0.445t0.445 1.055-0.445 1.055-1.055 0.445-1.055-0.445-0.445-1.055 0.445-1.055 1.055-0.445zM9.984 17.516q0.422 0 0.727 0.281t0.305 0.703-0.305 0.703-0.727 0.281-0.703-0.281-0.281-0.703 0.281-0.703 0.703-0.281zM9.984 8.984q0.609 0 1.055 0.445t0.445 1.055-0.445 1.055-1.055 0.445-1.055-0.445-0.445-1.055 0.445-1.055 1.055-0.445zM14.016 20.984q0.469 0 0.469 0.516t-0.469 0.516q-0.516 0-0.516-0.516t0.516-0.516zM14.016 17.516q0.422 0 0.703 0.281t0.281 0.703-0.281 0.703-0.703 0.281-0.727-0.281-0.305-0.703 0.305-0.703 0.727-0.281zM21 14q0.516 0 0.516 0.516 0 0.469-0.516 0.469t-0.516-0.469q0-0.516 0.516-0.516zM18 5.516q0.422 0 0.703 0.281t0.281 0.703-0.281 0.703-0.703 0.281-0.703-0.281-0.281-0.703 0.281-0.703 0.703-0.281zM18 9.5q0.422 0 0.703 0.281t0.281 0.703-0.281 0.727-0.703 0.305-0.703-0.305-0.281-0.727 0.281-0.703 0.703-0.281zM18 17.516q0.422 0 0.703 0.281t0.281 0.703-0.281 0.703-0.703 0.281-0.703-0.281-0.281-0.703 0.281-0.703 0.703-0.281zM18 13.484q0.422 0 0.703 0.305t0.281 0.727-0.281 0.703-0.703 0.281-0.703-0.281-0.281-0.703 0.281-0.727 0.703-0.305zM9.984 13.016q0.609 0 1.055 0.445t0.445 1.055-0.445 1.055-1.055 0.445-1.055-0.445-0.445-1.055 0.445-1.055 1.055-0.445zM9.984 7.484q-0.422 0-0.703-0.281t-0.281-0.703 0.281-0.703 0.703-0.281 0.727 0.281 0.305 0.703-0.305 0.703-0.727 0.281zM9.984 4.016q-0.469 0-0.469-0.516t0.469-0.516q0.516 0 0.516 0.516t-0.516 0.516zM9.984 20.984q0.516 0 0.516 0.516t-0.516 0.516q-0.469 0-0.469-0.516t0.469-0.516zM3 14q0.516 0 0.516 0.516 0 0.469-0.516 0.469t-0.516-0.469q0-0.516 0.516-0.516zM14.016 4.016q-0.516 0-0.516-0.516t0.516-0.516q0.469 0 0.469 0.516t-0.469 0.516zM14.016 7.484q-0.422 0-0.727-0.281t-0.305-0.703 0.305-0.703 0.727-0.281 0.703 0.281 0.281 0.703-0.281 0.703-0.703 0.281zM21 11q-0.516 0-0.516-0.516 0-0.469 0.516-0.469t0.516 0.469q0 0.516-0.516 0.516zM6 5.516q0.422 0 0.703 0.281t0.281 0.703-0.281 0.703-0.703 0.281-0.703-0.281-0.281-0.703 0.281-0.703 0.703-0.281zM3 10.016q0.516 0 0.516 0.469 0 0.516-0.516 0.516t-0.516-0.516q0-0.469 0.516-0.469zM6 9.5q0.422 0 0.703 0.281t0.281 0.703-0.281 0.727-0.703 0.305-0.703-0.305-0.281-0.727 0.281-0.703 0.703-0.281zM6 17.516q0.422 0 0.703 0.281t0.281 0.703-0.281 0.703-0.703 0.281-0.703-0.281-0.281-0.703 0.281-0.703 0.703-0.281zM6 13.484q0.422 0 0.703 0.305t0.281 0.727-0.281 0.703-0.703 0.281-0.703-0.281-0.281-0.703 0.281-0.727 0.703-0.305z"></path>
</svg>
