<?xml version="1.0" encoding="utf-8"?>
<!-- Generated by IcoMoon.io -->
<!DOCTYPE svg PUBLIC "-//W3C//DTD SVG 1.1//EN" "http://www.w3.org/Graphics/SVG/1.1/DTD/svg11.dtd">
<svg version="1.1" xmlns="http://www.w3.org/2000/svg" xmlns:xlink="http://www.w3.org/1999/xlink" width="24" height="24" viewBox="0 0 24 24">
<path d="M18 15.5v2.016h-2.016v-2.016h2.016zM18 11.516v1.969h-2.016v-1.969h2.016zM20.016 19.484v-9.984h-8.016v2.016h2.016v1.969h-2.016v2.016h2.016v2.016h-2.016v1.969h8.016zM9.984 7.484v-1.969h-1.969v1.969h1.969zM9.984 11.516v-2.016h-1.969v2.016h1.969zM9.984 15.5v-2.016h-1.969v2.016h1.969zM9.984 19.484v-1.969h-1.969v1.969h1.969zM6 7.484v-1.969h-2.016v1.969h2.016zM6 11.516v-2.016h-2.016v2.016h2.016zM6 15.5v-2.016h-2.016v2.016h2.016zM6 19.484v-1.969h-2.016v1.969h2.016zM12 7.484h9.984v14.016h-19.969v-18h9.984v3.984z"></path>
</svg>
