<?xml version="1.0" encoding="utf-8"?>
<!-- Generated by IcoMoon.io -->
<!DOCTYPE svg PUBLIC "-//W3C//DTD SVG 1.1//EN" "http://www.w3.org/Graphics/SVG/1.1/DTD/svg11.dtd">
<svg version="1.1" xmlns="http://www.w3.org/2000/svg" xmlns:xlink="http://www.w3.org/1999/xlink" width="24" height="24" viewBox="0 0 24 24">
<path d="M13.748 16.605c-0.035 0.039-0.071 0.078-0.107 0.117-0.27-0.736-0.772-1.103-1.508-1.103h-0.772v-2.354c0-0.221-0.074-0.405-0.221-0.552s-0.331-0.221-0.552-0.221h-4.707v-1.581h1.545c0.221 0 0.411-0.074 0.57-0.221s0.239-0.331 0.239-0.552v-1.581h1.545c0.417 0 0.785-0.153 1.103-0.46s0.478-0.668 0.478-1.085v-0.331c1.177 0.466 2.127 1.226 2.85 2.28s1.085 2.231 1.085 3.53c0 0.429-0.038 0.842-0.113 1.239l0.598 2.722c0.706-1.177 1.060-2.497 1.060-3.962 0-2.158-0.766-4.002-2.298-5.535s-3.377-2.298-5.535-2.298-4.002 0.766-5.535 2.298-2.298 3.377-2.298 5.535 0.766 4.002 2.298 5.535 3.377 2.298 5.535 2.298c1.985 0 3.706-0.649 5.162-1.947l-0.421-1.774zM8.236 18.708c-1.545-0.196-2.85-0.883-3.917-2.059s-1.6-2.562-1.6-4.156c0-0.441 0.061-0.907 0.184-1.397l3.751 3.751v0.772c0 0.417 0.159 0.785 0.478 1.103s0.686 0.478 1.103 0.478v1.508zM15.209 20.341l-2.116-8.338h1.138l0.99 4.219c0.247 1.039 0.47 2.078 0.619 2.883h0.025c0.136-0.829 0.396-1.819 0.68-2.895l1.113-4.206h1.126l1.014 4.231c0.235 0.99 0.458 1.979 0.581 2.858h0.025c0.173-0.916 0.408-1.843 0.668-2.883l1.101-4.206h1.101l-2.363 8.338h-1.126l-1.052-4.342c-0.26-1.064-0.433-1.88-0.544-2.722h-0.025c-0.148 0.829-0.334 1.645-0.643 2.722l-1.188 4.342h-1.126z"></path>
</svg>
