<?xml version="1.0" encoding="utf-8"?>
<!-- Generated by IcoMoon.io -->
<!DOCTYPE svg PUBLIC "-//W3C//DTD SVG 1.1//EN" "http://www.w3.org/Graphics/SVG/1.1/DTD/svg11.dtd">
<svg version="1.1" xmlns="http://www.w3.org/2000/svg" xmlns:xlink="http://www.w3.org/1999/xlink" width="24" height="24" viewBox="0 0 24 24">
<path d="M20.016 18.5v-12h-16.031v12h16.031zM20.016 4.484q0.797 0 1.383 0.609t0.586 1.406v12q0 0.797-0.586 1.406t-1.383 0.609h-16.031q-0.797 0-1.383-0.609t-0.586-1.406v-12q0-0.797 0.586-1.406t1.383-0.609h16.031zM12 10.484v2.016h-2.016v-2.016h2.016zM8.016 10.484v2.016h-2.016v-2.016h2.016zM15.984 14.516v1.969h-1.969v-1.969h1.969zM15.984 10.484v2.016h-1.969v-2.016h1.969z"></path>
</svg>
