<?xml version="1.0" encoding="utf-8"?>
<!-- Generated by IcoMoon.io -->
<!DOCTYPE svg PUBLIC "-//W3C//DTD SVG 1.1//EN" "http://www.w3.org/Graphics/SVG/1.1/DTD/svg11.dtd">
<svg version="1.1" xmlns="http://www.w3.org/2000/svg" xmlns:xlink="http://www.w3.org/1999/xlink" width="24" height="24" viewBox="0 0 24 24">
<path d="M12 23.516l-3.984-4.031h7.969zM18.984 8.516v-2.016h-1.969v2.016h1.969zM18.984 11.516v-2.016h-1.969v2.016h1.969zM15.984 8.516v-2.016h-1.969v2.016h1.969zM15.984 11.516v-2.016h-1.969v2.016h1.969zM15.984 15.5v-2.016h-7.969v2.016h7.969zM6.984 8.516v-2.016h-1.969v2.016h1.969zM6.984 11.516v-2.016h-1.969v2.016h1.969zM8.016 9.5v2.016h1.969v-2.016h-1.969zM8.016 6.5v2.016h1.969v-2.016h-1.969zM11.016 9.5v2.016h1.969v-2.016h-1.969zM11.016 6.5v2.016h1.969v-2.016h-1.969zM20.016 3.5q0.797 0 1.383 0.609t0.586 1.406v9.984q0 0.797-0.586 1.406t-1.383 0.609h-16.031q-0.797 0-1.383-0.609t-0.586-1.406v-9.984q0-0.797 0.586-1.406t1.383-0.609h16.031z"></path>
</svg>
