<?xml version="1.0" encoding="utf-8"?>
<!-- Generated by IcoMoon.io -->
<!DOCTYPE svg PUBLIC "-//W3C//DTD SVG 1.1//EN" "http://www.w3.org/Graphics/SVG/1.1/DTD/svg11.dtd">
<svg version="1.1" xmlns="http://www.w3.org/2000/svg" xmlns:xlink="http://www.w3.org/1999/xlink" width="24" height="24" viewBox="0 0 24 24">
<path d="M16.359 14.516h3.375q0.281-1.313 0.281-2.016t-0.281-2.016h-3.375q0.141 0.984 0.141 2.016t-0.141 2.016zM14.578 20.047q2.859-0.938 4.359-3.563h-2.953q-0.469 1.875-1.406 3.563zM14.344 14.516q0.141-0.984 0.141-2.016t-0.141-2.016h-4.688q-0.141 0.984-0.141 2.016t0.141 2.016h4.688zM12 20.469q1.313-1.922 1.922-3.984h-3.844q0.609 2.063 1.922 3.984zM8.016 8.516q0.469-1.875 1.406-3.563-2.859 0.938-4.359 3.563h2.953zM5.063 16.484q1.5 2.625 4.359 3.563-0.938-1.688-1.406-3.563h-2.953zM4.266 14.516h3.375q-0.141-0.984-0.141-2.016t0.141-2.016h-3.375q-0.281 1.313-0.281 2.016t0.281 2.016zM12 4.531q-1.313 1.922-1.922 3.984h3.844q-0.609-2.062-1.922-3.984zM18.938 8.516q-1.5-2.625-4.359-3.563 0.938 1.688 1.406 3.563h2.953zM12 2.516q4.125 0 7.055 2.93t2.93 7.055-2.93 7.055-7.055 2.93-7.055-2.93-2.93-7.055 2.93-7.055 7.055-2.93z"></path>
</svg>
