<?xml version="1.0" encoding="utf-8"?>
<!-- Generated by IcoMoon.io -->
<!DOCTYPE svg PUBLIC "-//W3C//DTD SVG 1.1//EN" "http://www.w3.org/Graphics/SVG/1.1/DTD/svg11.dtd">
<svg version="1.1" xmlns="http://www.w3.org/2000/svg" xmlns:xlink="http://www.w3.org/1999/xlink" width="24" height="24" viewBox="0 0 24 24">
<path d="M18.984 15.5v-2.016h-1.969v2.016h1.969zM18.984 19.484v-1.969h-1.969v1.969h1.969zM12.984 7.484v-1.969h-1.969v1.969h1.969zM12.984 11.516v-2.016h-1.969v2.016h1.969zM12.984 15.5v-2.016h-1.969v2.016h1.969zM12.984 19.484v-1.969h-1.969v1.969h1.969zM6.984 11.516v-2.016h-1.969v2.016h1.969zM6.984 15.5v-2.016h-1.969v2.016h1.969zM6.984 19.484v-1.969h-1.969v1.969h1.969zM15 11.516h6v9.984h-18v-14.016h6v-1.969l3-3 3 3v6z"></path>
</svg>
