<?xml version="1.0" encoding="utf-8"?>
<!-- Generated by IcoMoon.io -->
<!DOCTYPE svg PUBLIC "-//W3C//DTD SVG 1.1//EN" "http://www.w3.org/Graphics/SVG/1.1/DTD/svg11.dtd">
<svg version="1.1" xmlns="http://www.w3.org/2000/svg" xmlns:xlink="http://www.w3.org/1999/xlink" width="24" height="24" viewBox="0 0 24 24">
<path d="M7.75 7.016c-0.531 0-1 0.195-1.406 0.586s-0.609 0.852-0.609 1.383 0.203 1 0.609 1.406 0.875 0.609 1.406 0.609 1-0.203 1.406-0.609 0.609-0.875 0.609-1.406-0.203-0.992-0.609-1.383-0.875-0.586-1.406-0.586zM7.75 12.5c-0.969 0-1.797-0.344-2.484-1.031s-1.031-1.516-1.031-2.484 0.344-1.789 1.031-2.461 1.516-1.008 2.484-1.008 1.797 0.336 2.484 1.008 1.031 1.492 1.031 2.461-0.344 1.797-1.031 2.484-1.516 1.031-2.484 1.031zM12.766 17.984v-1.219c0-0.312-0.555-0.687-1.664-1.125s-2.227-0.656-3.352-0.656-2.242 0.219-3.352 0.656-1.664 0.813-1.664 1.125v1.219h10.031zM14.266 19.484h-13.031v-2.719c0-0.969 0.75-1.758 2.25-2.367s2.922-0.914 4.266-0.914c1.469 0 2.969 0.344 4.5 1.031 0.695 0.412 2.016 0.781 2.016 2.25zM15.766 13.453c0.875 0 1.828 0.125 2.859 0.375s1.984 0.656 2.859 1.219 1.313 1.203 1.313 1.922v2.484h-6v-2.484c0-1.375-0.656-2.531-1.969-3.469 0.219-0.031 0.531-0.047 0.938-0.047zM15.766 12.109c-0.813 0-1.516-0.297-2.109-0.891s-0.891-1.297-0.891-2.109 0.297-1.516 0.891-2.109 1.297-0.891 2.109-0.891 1.516 0.297 2.109 0.891 0.891 1.297 0.891 2.109-0.297 1.516-0.891 2.109-1.297 0.891-2.109 0.891z"></path>
</svg>
