<?xml version="1.0" encoding="utf-8"?>
<!-- Generated by IcoMoon.io -->
<!DOCTYPE svg PUBLIC "-//W3C//DTD SVG 1.1//EN" "http://www.w3.org/Graphics/SVG/1.1/DTD/svg11.dtd">
<svg version="1.1" xmlns="http://www.w3.org/2000/svg" xmlns:xlink="http://www.w3.org/1999/xlink" width="24" height="24" viewBox="0 0 24 24">
<path d="M16.52 15.183h2.967c0.106 0 0.199-0.040 0.279-0.119s0.119-0.172 0.119-0.279v-1.327c0-0.106-0.040-0.199-0.119-0.279s-0.172-0.119-0.279-0.119h-15.757c-0.106 0-0.199 0.040-0.279 0.119s-0.119 0.172-0.119 0.279v1.327c0 0.106 0.040 0.199 0.119 0.279s0.172 0.119 0.279 0.119h2.967l2.526 8.102h4.771zM11.625 7.343c0.615 0 1.286 0.088 2.011 0.264s1.39 0.462 1.995 0.857 0.907 0.846 0.907 1.352v1.748h-9.858v-1.748c0-0.506 0.308-0.956 0.923-1.352s1.286-0.681 2.011-0.857c0.725-0.176 1.396-0.264 2.011-0.264zM11.625 5.958c-0.572 0-1.066-0.209-1.484-0.626s-0.626-0.912-0.626-1.484c0-0.571 0.209-1.066 0.626-1.484s0.912-0.627 1.484-0.627 1.061 0.209 1.467 0.626 0.61 0.912 0.61 1.484c0 0.571-0.203 1.066-0.61 1.484s-0.896 0.627-1.467 0.627z"></path>
</svg>
