<?xml version="1.0" encoding="utf-8"?>
<!-- Generated by IcoMoon.io -->
<!DOCTYPE svg PUBLIC "-//W3C//DTD SVG 1.1//EN" "http://www.w3.org/Graphics/SVG/1.1/DTD/svg11.dtd">
<svg version="1.1" xmlns="http://www.w3.org/2000/svg" xmlns:xlink="http://www.w3.org/1999/xlink" width="24" height="24" viewBox="0 0 24 24">
<path d="M18 5.516h3.984v3.984h-3.984v-3.984zM18 19.484v-3.984h3.984v3.984h-3.984zM12.984 19.484v-3.984h4.031v3.984h-4.031zM8.016 19.484v-3.984h3.984v3.984h-3.984zM3 19.484v-3.984h3.984v3.984h-3.984zM18 14.516v-4.031h3.984v4.031h-3.984zM12.984 5.516h4.031v3.984h-4.031v-3.984zM8.016 9.5v-3.984h3.984v3.984h-3.984zM12.984 14.516v-4.031h4.031v4.031h-4.031zM8.016 14.516v-4.031h3.984v4.031h-3.984zM3 14.516v-4.031h3.984v4.031h-3.984zM3 9.5v-3.984h3.984v3.984h-3.984z"></path>
</svg>
