<?xml version="1.0" encoding="utf-8"?>
<!-- Generated by IcoMoon.io -->
<!DOCTYPE svg PUBLIC "-//W3C//DTD SVG 1.1//EN" "http://www.w3.org/Graphics/SVG/1.1/DTD/svg11.dtd">
<svg version="1.1" xmlns="http://www.w3.org/2000/svg" xmlns:xlink="http://www.w3.org/1999/xlink" width="24" height="24" viewBox="0 0 24 24">
<path d="M3.563 19.062l1.781-1.828 1.406 1.406-1.781 1.828zM11.016 22.953v-2.953h1.969v2.953h-1.969zM12 5.984q2.484 0 4.242 1.758t1.758 4.242-1.758 4.242-4.242 1.758-4.242-1.758-1.758-4.242 1.758-4.242 4.242-1.758zM20.016 11h3v2.016h-3v-2.016zM17.25 18.641l1.406-1.359 1.781 1.781-1.406 1.406zM20.438 4.953l-1.781 1.781-1.406-1.406 1.781-1.781zM12.984 1.062v2.953h-1.969v-2.953h1.969zM3.984 11v2.016h-3v-2.016h3zM6.75 5.328l-1.406 1.406-1.781-1.781 1.406-1.406z"></path>
</svg>
